<?xml version="1.0" encoding="UTF-8"?> <svg xmlns="http://www.w3.org/2000/svg" viewBox="0 0 629 79.61"> <title>Recurso 2</title> <g id="Capa_2" data-name="Capa 2"> <g id="Capa_1-2" data-name="Capa 1"> <g> <path d="M65.7,57.2V57c0-10.38-5.52-15.57-14.47-19,5.52-3.09,10.16-8,10.16-16.67v-.22c0-12.15-9.72-20-25.51-20H0V78.4H36.77C54.22,78.4,65.7,71.33,65.7,57.2Zm-21.2-33c0,5.74-4.75,8.17-12.26,8.17H16.56V16H33.35c7.18,0,11.15,2.87,11.15,8ZM48.81,55.1c0,5.74-4.53,8.39-12,8.39H16.56v-17H36.22c8.72,0,12.59,3.2,12.59,8.39Z"></path> <path d="M171,78.4,152.11,50.79c9.83-3.64,16.56-11.48,16.56-24v-.22c0-15.9-10.93-25.51-29.15-25.51H104.19V78.4h17V53.67h13.36L151.12,78.4ZM151.45,27.72c0,6.51-4.75,10.93-13,10.93H121.19V16.45h16.89c8.28,0,13.36,3.75,13.36,11Z"></path> <path d="M274.52,44.72V1.1h-17V45.38c0,12.26-6.29,18.55-16.67,18.55s-16.67-6.51-16.67-19.1V1.1h-17V45.27c0,22.75,12.7,34.34,33.46,34.34S274.52,68.13,274.52,44.72Z"></path> <path d="M374.85,16.78V1.1h-64V16.78h23.52V78.4h17V16.78Z"></path> <path d="M478.18,44.72V1.1h-17V45.38c0,12.26-6.29,18.55-16.67,18.55s-16.67-6.51-16.67-19.1V1.1h-17V45.27c0,22.75,12.7,34.34,33.46,34.34S478.18,68.13,478.18,44.72Z"></path> <path d="M575.87,55.54v-.22c0-13.47-8.83-19.1-24.51-23.19C538,28.71,534.68,27.05,534.68,22v-.22c0-3.75,3.42-6.74,9.94-6.74s13.25,2.87,20.1,7.62l8.83-12.81A44.75,44.75,0,0,0,544.84,0C529,0,517.78,9.28,517.78,23.3v.22c0,15.35,10,19.65,25.62,23.63C556.32,50.46,559,52.67,559,57v.22c0,4.53-4.2,7.29-11.15,7.29-8.83,0-16.12-3.64-23.08-9.39l-10,12a49.19,49.19,0,0,0,32.8,12.37C564.16,79.5,575.87,70.89,575.87,55.54Z"></path> <path d="M601.83,6.51h5.78v-3H592.81v3h5.78V21.77h3.23Z"></path> <path d="M625.8,8.7V21.77H629V3.54h-3.41L620,12.16l-5.55-8.62h-3.41V21.77h3.15v-13l5.7,8.54h.1Z"></path> </g> </g> </g> </svg> 